<svg width="27" height="22" viewBox="0 0 27 22" fill="none" xmlns="http://www.w3.org/2000/svg">
<path d="M3 0.5H24C25.6406 0.5 27 1.85938 27 3.5V18.5C27 20.1875 25.6406 21.5 24 21.5H3C1.3125 21.5 0 20.1875 0 18.5V3.5C0 1.85938 1.3125 0.5 3 0.5ZM6.75 12.5C4.64062 12.5 3 14.1875 3 16.25C3 16.6719 3.32812 17 3.75 17H12.75C13.125 17 13.5 16.6719 13.5 16.25C13.5 14.1875 11.8125 12.5 9.75 12.5H6.75ZM11.25 8C11.25 6.35938 9.89062 5 8.25 5C6.5625 5 5.25 6.35938 5.25 8C5.25 9.6875 6.5625 11 8.25 11C9.89062 11 11.25 9.6875 11.25 8ZM17.25 6.5C16.8281 6.5 16.5 6.875 16.5 7.25C16.5 7.67188 16.8281 8 17.25 8H23.25C23.625 8 24 7.67188 24 7.25C24 6.875 23.625 6.5 23.25 6.5H17.25ZM17.25 9.5C16.8281 9.5 16.5 9.875 16.5 10.25C16.5 10.6719 16.8281 11 17.25 11H23.25C23.625 11 24 10.6719 24 10.25C24 9.875 23.625 9.5 23.25 9.5H17.25ZM17.25 12.5C16.8281 12.5 16.5 12.875 16.5 13.25C16.5 13.6719 16.8281 14 17.25 14H23.25C23.625 14 24 13.6719 24 13.25C24 12.875 23.625 12.5 23.25 12.5H17.25Z" fill="#B6B6B6"/>
</svg>
