<svg width="25" height="25" viewBox="0 0 25 25" fill="none" xmlns="http://www.w3.org/2000/svg">
<path d="M7.6875 2.17188L9.5625 6.67188C9.89062 7.42188 9.70312 8.3125 9.04688 8.82812L6.75 10.75C8.29688 14.0312 10.9688 16.7031 14.25 18.25L16.1719 15.9531C16.6875 15.2969 17.5781 15.1094 18.3281 15.4375L22.8281 17.3125C23.7188 17.6406 24.1406 18.625 23.9062 19.5156L22.7812 23.6406C22.5469 24.4375 21.8438 25 21 25C9.375 25 0 15.625 0 4C0 3.15625 0.5625 2.45312 1.35938 2.21875L5.48438 1.09375C6.375 0.859375 7.35938 1.28125 7.6875 2.17188Z" fill="#B6B6B6"/>
</svg>
